<mxfile host="app.diagrams.net" modified="2023-06-17T13:09:48.429Z" agent="Mozilla/5.0 (X11; Linux x86_64) AppleWebKit/537.36 (KHTML, like Gecko) Chrome/113.0.0.0 Safari/537.36" etag="L4wQSeq3XeDnK98WnN3G" version="21.4.0" type="github">
  <diagram name="Page-1" id="zba97-1M8WYmOo2Gn8Mu">
    <mxGraphModel dx="2212" dy="807" grid="1" gridSize="10" guides="1" tooltips="1" connect="1" arrows="1" fold="1" page="1" pageScale="1" pageWidth="850" pageHeight="1100" math="0" shadow="0">
      <root>
        <mxCell id="0" />
        <mxCell id="1" parent="0" />
        <mxCell id="2QwEI3mlzVI0OmdRwxbO-11" style="edgeStyle=orthogonalEdgeStyle;rounded=0;orthogonalLoop=1;jettySize=auto;html=1;exitX=1;exitY=0.5;exitDx=0;exitDy=0;entryX=0;entryY=0.5;entryDx=0;entryDy=0;" edge="1" parent="1" source="ApzSBD-2M0S4P9EVtKoC-1" target="ApzSBD-2M0S4P9EVtKoC-5">
          <mxGeometry relative="1" as="geometry" />
        </mxCell>
        <mxCell id="ApzSBD-2M0S4P9EVtKoC-1" value="&lt;b&gt;Proposal (re)submission&lt;/b&gt;" style="rounded=1;whiteSpace=wrap;html=1;" parent="1" vertex="1">
          <mxGeometry x="182.5" y="170" width="120" height="60" as="geometry" />
        </mxCell>
        <mxCell id="2QwEI3mlzVI0OmdRwxbO-6" style="rounded=0;orthogonalLoop=1;jettySize=auto;html=1;exitX=0.75;exitY=1;exitDx=0;exitDy=0;dashed=1;" edge="1" parent="1" source="ApzSBD-2M0S4P9EVtKoC-5">
          <mxGeometry relative="1" as="geometry">
            <mxPoint x="510" y="330" as="targetPoint" />
          </mxGeometry>
        </mxCell>
        <mxCell id="2QwEI3mlzVI0OmdRwxbO-12" style="edgeStyle=orthogonalEdgeStyle;rounded=0;orthogonalLoop=1;jettySize=auto;html=1;exitX=0;exitY=0.75;exitDx=0;exitDy=0;entryX=1;entryY=0.75;entryDx=0;entryDy=0;" edge="1" parent="1" source="ApzSBD-2M0S4P9EVtKoC-5" target="ApzSBD-2M0S4P9EVtKoC-1">
          <mxGeometry relative="1" as="geometry" />
        </mxCell>
        <mxCell id="2QwEI3mlzVI0OmdRwxbO-13" style="edgeStyle=orthogonalEdgeStyle;rounded=0;orthogonalLoop=1;jettySize=auto;html=1;exitX=1;exitY=0.5;exitDx=0;exitDy=0;entryX=0;entryY=0.5;entryDx=0;entryDy=0;" edge="1" parent="1" source="ApzSBD-2M0S4P9EVtKoC-5" target="ApzSBD-2M0S4P9EVtKoC-6">
          <mxGeometry relative="1" as="geometry" />
        </mxCell>
        <mxCell id="ApzSBD-2M0S4P9EVtKoC-5" value="&lt;b&gt;Proposal (re)assessment/voting&lt;/b&gt;" style="rounded=1;whiteSpace=wrap;html=1;" parent="1" vertex="1">
          <mxGeometry x="365" y="170" width="150" height="60" as="geometry" />
        </mxCell>
        <mxCell id="2QwEI3mlzVI0OmdRwxbO-7" style="rounded=0;orthogonalLoop=1;jettySize=auto;html=1;exitX=0.25;exitY=1;exitDx=0;exitDy=0;dashed=1;" edge="1" parent="1" source="ApzSBD-2M0S4P9EVtKoC-6">
          <mxGeometry relative="1" as="geometry">
            <mxPoint x="540" y="330" as="targetPoint" />
          </mxGeometry>
        </mxCell>
        <mxCell id="2QwEI3mlzVI0OmdRwxbO-15" style="edgeStyle=orthogonalEdgeStyle;rounded=0;orthogonalLoop=1;jettySize=auto;html=1;exitX=1;exitY=0.5;exitDx=0;exitDy=0;entryX=0;entryY=0.5;entryDx=0;entryDy=0;" edge="1" parent="1" source="ApzSBD-2M0S4P9EVtKoC-6" target="ApzSBD-2M0S4P9EVtKoC-9">
          <mxGeometry relative="1" as="geometry" />
        </mxCell>
        <mxCell id="ApzSBD-2M0S4P9EVtKoC-6" value="&lt;b&gt;Funding with SCV procedure&lt;/b&gt;" style="rounded=1;whiteSpace=wrap;html=1;" parent="1" vertex="1">
          <mxGeometry x="560" y="170" width="150" height="60" as="geometry" />
        </mxCell>
        <mxCell id="2QwEI3mlzVI0OmdRwxbO-10" style="edgeStyle=orthogonalEdgeStyle;rounded=0;orthogonalLoop=1;jettySize=auto;html=1;exitX=1;exitY=0.5;exitDx=0;exitDy=0;entryX=0;entryY=0.5;entryDx=0;entryDy=0;" edge="1" parent="1" source="ApzSBD-2M0S4P9EVtKoC-7" target="ApzSBD-2M0S4P9EVtKoC-1">
          <mxGeometry relative="1" as="geometry" />
        </mxCell>
        <mxCell id="ApzSBD-2M0S4P9EVtKoC-7" value="&lt;b&gt;Project Repository&lt;/b&gt;" style="rounded=0;whiteSpace=wrap;html=1;" parent="1" vertex="1">
          <mxGeometry x="20" y="170" width="120" height="60" as="geometry" />
        </mxCell>
        <mxCell id="2QwEI3mlzVI0OmdRwxbO-16" style="edgeStyle=orthogonalEdgeStyle;rounded=0;orthogonalLoop=1;jettySize=auto;html=1;exitX=1;exitY=0.5;exitDx=0;exitDy=0;entryX=0;entryY=0.5;entryDx=0;entryDy=0;" edge="1" parent="1" source="ApzSBD-2M0S4P9EVtKoC-9" target="2QwEI3mlzVI0OmdRwxbO-1">
          <mxGeometry relative="1" as="geometry" />
        </mxCell>
        <mxCell id="ApzSBD-2M0S4P9EVtKoC-9" value="&lt;b&gt;Project Execution&lt;/b&gt;" style="rounded=1;whiteSpace=wrap;html=1;" parent="1" vertex="1">
          <mxGeometry x="760" y="170" width="120" height="60" as="geometry" />
        </mxCell>
        <mxCell id="ApzSBD-2M0S4P9EVtKoC-11" value="Branching/&lt;br&gt;Commits" style="ellipse;shape=umlControl;whiteSpace=wrap;html=1;" parent="1" vertex="1">
          <mxGeometry x="767.5" y="210" width="105" height="120" as="geometry" />
        </mxCell>
        <mxCell id="ApzSBD-2M0S4P9EVtKoC-12" value="&lt;b&gt;&lt;font style=&quot;font-size: 41px;&quot;&gt;Version Control System On-Chain&lt;/font&gt;&lt;/b&gt;" style="shape=cylinder3;whiteSpace=wrap;html=1;boundedLbl=1;backgroundOutline=1;size=15;" parent="1" vertex="1">
          <mxGeometry x="18.75" y="400" width="1232.5" height="130" as="geometry" />
        </mxCell>
        <mxCell id="ApzSBD-2M0S4P9EVtKoC-13" value="DAO driven deployment" style="ellipse;whiteSpace=wrap;html=1;" parent="1" vertex="1">
          <mxGeometry x="20" y="230" width="125" height="80" as="geometry" />
        </mxCell>
        <mxCell id="ApzSBD-2M0S4P9EVtKoC-14" value="DAO driven deployment" style="ellipse;whiteSpace=wrap;html=1;" parent="1" vertex="1">
          <mxGeometry x="182.5" y="230" width="117.5" height="80" as="geometry" />
        </mxCell>
        <mxCell id="ApzSBD-2M0S4P9EVtKoC-15" value="DAO driven Soft Majority Voting" style="ellipse;whiteSpace=wrap;html=1;" parent="1" vertex="1">
          <mxGeometry x="330" y="230" width="122.5" height="80" as="geometry" />
        </mxCell>
        <mxCell id="ApzSBD-2M0S4P9EVtKoC-16" value="DAO driven Soft Cooperative Voting" style="ellipse;whiteSpace=wrap;html=1;" parent="1" vertex="1">
          <mxGeometry x="600" y="230" width="125" height="80" as="geometry" />
        </mxCell>
        <mxCell id="2QwEI3mlzVI0OmdRwxbO-17" style="edgeStyle=orthogonalEdgeStyle;rounded=0;orthogonalLoop=1;jettySize=auto;html=1;exitX=1;exitY=0.5;exitDx=0;exitDy=0;" edge="1" parent="1" source="2QwEI3mlzVI0OmdRwxbO-1">
          <mxGeometry relative="1" as="geometry">
            <mxPoint x="1110" y="200" as="targetPoint" />
          </mxGeometry>
        </mxCell>
        <mxCell id="2QwEI3mlzVI0OmdRwxbO-1" value="&lt;b&gt;Finalizing Research&lt;/b&gt;" style="rounded=1;whiteSpace=wrap;html=1;" vertex="1" parent="1">
          <mxGeometry x="930" y="170" width="130" height="60" as="geometry" />
        </mxCell>
        <mxCell id="2QwEI3mlzVI0OmdRwxbO-2" value="DAO driven Soft Majority Voting" style="ellipse;whiteSpace=wrap;html=1;" vertex="1" parent="1">
          <mxGeometry x="932.5" y="230" width="125" height="80" as="geometry" />
        </mxCell>
        <mxCell id="2QwEI3mlzVI0OmdRwxbO-4" value="&lt;b&gt;Research Loop&lt;/b&gt;" style="ellipse;shape=umlControl;whiteSpace=wrap;html=1;" vertex="1" parent="1">
          <mxGeometry x="1120" y="160" width="70" height="80" as="geometry" />
        </mxCell>
        <mxCell id="2QwEI3mlzVI0OmdRwxbO-9" value="&lt;b&gt;REJECTION&lt;/b&gt;" style="shape=hexagon;perimeter=hexagonPerimeter2;whiteSpace=wrap;html=1;fixedSize=1;" vertex="1" parent="1">
          <mxGeometry x="470" y="330" width="100" height="60" as="geometry" />
        </mxCell>
        <mxCell id="2QwEI3mlzVI0OmdRwxbO-18" value="&lt;b&gt;&lt;font style=&quot;font-size: 41px;&quot;&gt;Mapping between research stages and digital system functions&lt;/font&gt;&lt;/b&gt;" style="text;html=1;align=center;verticalAlign=middle;resizable=0;points=[];autosize=1;strokeColor=none;fillColor=none;" vertex="1" parent="1">
          <mxGeometry x="-20" y="63" width="1260" height="60" as="geometry" />
        </mxCell>
      </root>
    </mxGraphModel>
  </diagram>
</mxfile>
